<?xml version="1.0" encoding="UTF-8" standalone="no"?>
<!DOCTYPE svg PUBLIC "-//W3C//DTD SVG 1.1//EN"
 "http://www.w3.org/Graphics/SVG/1.1/DTD/svg11.dtd">
<!-- Generated by graphviz version 14.1.2 (20260124.0452)
 -->
<!-- Title: CognitiveSquadArchitecture Pages: 1 -->
<svg width="6887pt" height="10875pt"
 viewBox="0.00 0.00 6887.00 10875.00" xmlns="http://www.w3.org/2000/svg" xmlns:xlink="http://www.w3.org/1999/xlink">
<g id="graph0" class="graph" transform="scale(4.16667 4.16667) rotate(0) translate(36 2574)">
<title>CognitiveSquadArchitecture</title>
<polygon fill="#fafafa" stroke="none" points="-36,36 -36,-2574 1616.85,-2574 1616.85,36 -36,36"/>
<text xml:space="preserve" text-anchor="start" x="590.92" y="-2517.9" font-family="Helvetica Neue" font-weight="bold" font-size="18.00">Cognitive Squad v0.3.0 — 7&#45;Layer Architecture</text>
<text xml:space="preserve" text-anchor="start" x="631.8" y="-2506.55" font-family="Helvetica Neue" font-size="11.00" fill="#666666">35 registered agents + 3 unregistered | 4&#45;phase execution model</text>
<g id="clust1" class="cluster">
<title>cluster_control</title>
<path fill="#e3f2fd" stroke="#1565c0" stroke-width="2" d="M60.88,-2203C60.88,-2203 518.82,-2203 518.82,-2203 524.82,-2203 530.82,-2209 530.82,-2215 530.82,-2215 530.82,-2401 530.82,-2401 530.82,-2407 524.82,-2413 518.82,-2413 518.82,-2413 60.87,-2413 60.87,-2413 54.87,-2413 48.88,-2407 48.88,-2401 48.88,-2401 48.88,-2215 48.88,-2215 48.88,-2209 54.88,-2203 60.88,-2203"/>
<text xml:space="preserve" text-anchor="start" x="242.6" y="-2399.55" font-family="Helvetica Neue" font-weight="bold" font-size="11.00">CONTROL LAYER</text>
<text xml:space="preserve" text-anchor="start" x="205.47" y="-2390.45" font-family="Helvetica Neue" font-size="9.00" fill="#555555">Always active — orchestration &amp; oversight</text>
</g>
<g id="clust2" class="cluster">
<title>cluster_exploration</title>
<path fill="#e8f5e9" stroke="#2e7d32" stroke-width="2" d="M359.02,-1855C359.02,-1855 580.52,-1855 580.52,-1855 586.52,-1855 592.52,-1861 592.52,-1867 592.52,-1867 592.52,-2183 592.52,-2183 592.52,-2189 586.52,-2195 580.52,-2195 580.52,-2195 359.02,-2195 359.02,-2195 353.02,-2195 347.02,-2189 347.02,-2183 347.02,-2183 347.02,-1867 347.02,-1867 347.02,-1861 353.02,-1855 359.02,-1855"/>
<text xml:space="preserve" text-anchor="start" x="410.9" y="-2181.55" font-family="Helvetica Neue" font-weight="bold" font-size="11.00">EXPLORATION LAYER</text>
<text xml:space="preserve" text-anchor="start" x="355.02" y="-2172.45" font-family="Helvetica Neue" font-size="9.00" fill="#555555">Phase 1: UNDERSTAND — domain discovery &amp; validation</text>
</g>
<g id="clust3" class="cluster">
<title>cluster_feasibility</title>
<path fill="#fff3e0" stroke="#e65100" stroke-width="2" d="M390.52,-1702C390.52,-1702 549.02,-1702 549.02,-1702 555.02,-1702 561.02,-1708 561.02,-1714 561.02,-1714 561.02,-1835 561.02,-1835 561.02,-1841 555.02,-1847 549.02,-1847 549.02,-1847 390.52,-1847 390.52,-1847 384.52,-1847 378.52,-1841 378.52,-1835 378.52,-1835 378.52,-1714 378.52,-1714 378.52,-1708 384.52,-1702 390.52,-1702"/>
<text xml:space="preserve" text-anchor="start" x="416.52" y="-1833.55" font-family="Helvetica Neue" font-weight="bold" font-size="11.00">FEASIBILITY LAYER</text>
<text xml:space="preserve" text-anchor="start" x="386.52" y="-1824.45" font-family="Helvetica Neue" font-size="9.00" fill="#555555">Phase 2: DECIDE — kill gate &amp; verification</text>
</g>
<g id="clust4" class="cluster">
<title>cluster_solution</title>
<path fill="#f3e5f5" stroke="#6a1b9a" stroke-width="2" d="M379.27,-1484C379.27,-1484 560.27,-1484 560.27,-1484 566.27,-1484 572.27,-1490 572.27,-1496 572.27,-1496 572.27,-1682 572.27,-1682 572.27,-1688 566.27,-1694 560.27,-1694 560.27,-1694 379.27,-1694 379.27,-1694 373.27,-1694 367.27,-1688 367.27,-1682 367.27,-1682 367.27,-1496 367.27,-1496 367.27,-1490 373.27,-1484 379.27,-1484"/>
<text xml:space="preserve" text-anchor="start" x="421.4" y="-1680.55" font-family="Helvetica Neue" font-weight="bold" font-size="11.00">SOLUTION LAYER</text>
<text xml:space="preserve" text-anchor="start" x="375.27" y="-1671.45" font-family="Helvetica Neue" font-size="9.00" fill="#555555">Phase 3: SOLUTION — architecture &amp; planning</text>
</g>
<g id="clust5" class="cluster">
<title>cluster_specialists</title>
<path fill="#fffde7" stroke="#f57f17" stroke-width="2" d="M395.4,-1071C395.4,-1071 544.15,-1071 544.15,-1071 550.15,-1071 556.15,-1077 556.15,-1083 556.15,-1083 556.15,-1464 556.15,-1464 556.15,-1470 550.15,-1476 544.15,-1476 544.15,-1476 395.4,-1476 395.4,-1476 389.4,-1476 383.4,-1470 383.4,-1464 383.4,-1464 383.4,-1083 383.4,-1083 383.4,-1077 389.4,-1071 395.4,-1071"/>
<text xml:space="preserve" text-anchor="start" x="413.52" y="-1462.55" font-family="Helvetica Neue" font-weight="bold" font-size="11.00">SPECIALISTS LAYER</text>
<text xml:space="preserve" text-anchor="start" x="391.4" y="-1453.45" font-family="Helvetica Neue" font-size="9.00" fill="#555555">Summoned on demand — max 3 active</text>
</g>
<g id="clust6" class="cluster">
<title>cluster_build</title>
<path fill="#fce4ec" stroke="#c62828" stroke-width="2" d="M404.35,-593C404.35,-593 1560.85,-593 1560.85,-593 1566.85,-593 1572.85,-599 1572.85,-605 1572.85,-605 1572.85,-1051 1572.85,-1051 1572.85,-1057 1566.85,-1063 1560.85,-1063 1560.85,-1063 404.35,-1063 404.35,-1063 398.35,-1063 392.35,-1057 392.35,-1051 392.35,-1051 392.35,-605 392.35,-605 392.35,-599 398.35,-593 404.35,-593"/>
<text xml:space="preserve" text-anchor="start" x="945.85" y="-1049.55" font-family="Helvetica Neue" font-weight="bold" font-size="11.00">BUILD LAYER</text>
<text xml:space="preserve" text-anchor="start" x="882.47" y="-1040.45" font-family="Helvetica Neue" font-size="9.00" fill="#555555">Phase 4: BUILD — implementation &amp; quality gates</text>
</g>
<g id="clust7" class="cluster">
<title>cluster_learning</title>
<path fill="#eceff1" stroke="#37474f" stroke-width="2" d="M377.77,-180C377.77,-180 561.77,-180 561.77,-180 567.77,-180 573.77,-186 573.77,-192 573.77,-192 573.77,-573 573.77,-573 573.77,-579 567.77,-585 561.77,-585 561.77,-585 377.77,-585 377.77,-585 371.77,-585 365.77,-579 365.77,-573 365.77,-573 365.77,-192 365.77,-192 365.77,-186 371.77,-180 377.77,-180"/>
<text xml:space="preserve" text-anchor="start" x="421.02" y="-571.55" font-family="Helvetica Neue" font-weight="bold" font-size="11.00">LEARNING LAYER</text>
<text xml:space="preserve" text-anchor="start" x="373.77" y="-562.45" font-family="Helvetica Neue" font-size="9.00" fill="#555555">Cross&#45;cutting — post&#45;run analysis &amp; calibration</text>
</g>
<g id="clust8" class="cluster">
<title>cluster_enforcement</title>
<path fill="#ffebee" stroke="#b71c1c" stroke-width="3" d="M363.18,-8C363.18,-8 849.17,-8 849.17,-8 855.17,-8 861.17,-14 861.17,-20 861.17,-20 861.17,-160 861.17,-160 861.17,-166 855.17,-172 849.17,-172 849.17,-172 363.18,-172 363.18,-172 357.18,-172 351.18,-166 351.18,-160 351.18,-160 351.18,-20 351.18,-20 351.18,-14 357.18,-8 363.18,-8"/>
<text xml:space="preserve" text-anchor="start" x="542.8" y="-158.55" font-family="Helvetica Neue" font-weight="bold" font-size="11.00">ENFORCEMENT LAYER</text>
<text xml:space="preserve" text-anchor="start" x="515.43" y="-149.45" font-family="Helvetica Neue" font-size="9.00" fill="#555555">NEW in v0.3.0 — programmatic rule checking</text>
</g>
<g id="clust9" class="cluster">
<title>cluster_legend</title>
<path fill="#fafafa" stroke="#cccccc" d="M20,-2421C20,-2421 1197.15,-2421 1197.15,-2421 1203.15,-2421 1209.15,-2427 1209.15,-2433 1209.15,-2433 1209.15,-2481 1209.15,-2481 1209.15,-2487 1203.15,-2493 1197.15,-2493 1197.15,-2493 20,-2493 20,-2493 14,-2493 8,-2487 8,-2481 8,-2481 8,-2433 8,-2433 8,-2427 14,-2421 20,-2421"/>
<text xml:space="preserve" text-anchor="start" x="590.57" y="-2480.5" font-family="Helvetica Neue" font-weight="bold" font-size="10.00">Legend</text>
</g>
<!-- COMMANDER -->
<g id="node1" class="node">
<title>COMMANDER</title>
<path fill="#bbdefb" stroke="#1565c0" stroke-width="2" d="M163.97,-2247C163.97,-2247 68.87,-2247 68.87,-2247 62.87,-2247 56.87,-2241 56.87,-2235 56.87,-2235 56.87,-2223 56.87,-2223 56.87,-2217 62.87,-2211 68.87,-2211 68.87,-2211 163.97,-2211 163.97,-2211 169.97,-2211 175.97,-2217 175.97,-2223 175.97,-2223 175.97,-2235 175.97,-2235 175.97,-2241 169.97,-2247 163.97,-2247"/>
<text xml:space="preserve" text-anchor="start" x="81.92" y="-2229.5" font-family="Helvetica Neue" font-weight="bold" font-size="10.00">COMMANDER</text>
<text xml:space="preserve" text-anchor="start" x="67.67" y="-2221.4" font-family="Helvetica Neue" font-size="8.00">State machine orchestrator</text>
</g>
<!-- SCOREKEEPER -->
<g id="node2" class="node">
<title>SCOREKEEPER</title>
<path fill="#bbdefb" stroke="#1565c0" d="M510.82,-2247C510.82,-2247 427.72,-2247 427.72,-2247 421.72,-2247 415.72,-2241 415.72,-2235 415.72,-2235 415.72,-2223 415.72,-2223 415.72,-2217 421.72,-2211 427.72,-2211 427.72,-2211 510.82,-2211 510.82,-2211 516.82,-2211 522.82,-2217 522.82,-2223 522.82,-2223 522.82,-2235 522.82,-2235 522.82,-2241 516.82,-2247 510.82,-2247"/>
<text xml:space="preserve" text-anchor="start" x="430.27" y="-2229.5" font-family="Helvetica Neue" font-weight="bold" font-size="10.00">SCOREKEEPER</text>
<text xml:space="preserve" text-anchor="start" x="426.52" y="-2221.4" font-family="Helvetica Neue" font-size="8.00">Agent scoring &amp; badges</text>
</g>
<!-- COMMANDER&#45;&gt;SCOREKEEPER -->
<g id="edge26" class="edge">
<title>COMMANDER&#45;&gt;SCOREKEEPER</title>
<path fill="none" stroke="#1565c0" d="M176.94,-2229C240.02,-2229 339.28,-2229 404.08,-2229"/>
<polygon fill="#1565c0" stroke="#1565c0" points="403.85,-2232.5 413.85,-2229 403.85,-2225.5 403.85,-2232.5"/>
<text xml:space="preserve" text-anchor="middle" x="277.1" y="-2231.9" font-family="Helvetica Neue" font-size="8.00">scoring</text>
</g>
<!-- TRACKER -->
<g id="node3" class="node">
<title>TRACKER</title>
<path fill="#bbdefb" stroke="#1565c0" d="M505.95,-2312C505.95,-2312 432.6,-2312 432.6,-2312 426.6,-2312 420.6,-2306 420.6,-2300 420.6,-2300 420.6,-2288 420.6,-2288 420.6,-2282 426.6,-2276 432.6,-2276 432.6,-2276 505.95,-2276 505.95,-2276 511.95,-2276 517.95,-2282 517.95,-2288 517.95,-2288 517.95,-2300 517.95,-2300 517.95,-2306 511.95,-2312 505.95,-2312"/>
<text xml:space="preserve" text-anchor="start" x="444.52" y="-2294.5" font-family="Helvetica Neue" font-weight="bold" font-size="10.00">TRACKER</text>
<text xml:space="preserve" text-anchor="start" x="431.4" y="-2286.4" font-family="Helvetica Neue" font-size="8.00">User intent alignment</text>
</g>
<!-- COMMANDER&#45;&gt;TRACKER -->
<g id="edge5" class="edge">
<title>COMMANDER&#45;&gt;TRACKER</title>
<path fill="none" stroke="#1565c0" stroke-dasharray="5,2" d="M176.94,-2240.03C241.68,-2252.02 344.53,-2271.07 409.12,-2283.04"/>
<polygon fill="#1565c0" stroke="#1565c0" points="408.37,-2286.46 418.84,-2284.84 409.64,-2279.58 408.37,-2286.46"/>
<text xml:space="preserve" text-anchor="middle" x="277.1" y="-2268.29" font-family="Helvetica Neue" font-size="8.00">intent capture</text>
</g>
<!-- STRATEGIST -->
<g id="node5" class="node">
<title>STRATEGIST</title>
<path fill="#bbdefb" stroke="#1565c0" d="M510.07,-2377C510.07,-2377 428.47,-2377 428.47,-2377 422.47,-2377 416.47,-2371 416.47,-2365 416.47,-2365 416.47,-2353 416.47,-2353 416.47,-2347 422.47,-2341 428.47,-2341 428.47,-2341 510.07,-2341 510.07,-2341 516.07,-2341 522.07,-2347 522.07,-2353 522.07,-2353 522.07,-2365 522.07,-2365 522.07,-2371 516.07,-2377 510.07,-2377"/>
<text xml:space="preserve" text-anchor="start" x="437.77" y="-2359.5" font-family="Helvetica Neue" font-weight="bold" font-size="10.00">STRATEGIST</text>
<text xml:space="preserve" text-anchor="start" x="427.27" y="-2351.4" font-family="Helvetica Neue" font-size="8.00">Risk&#45;weighted overview</text>
</g>
<!-- COMMANDER&#45;&gt;STRATEGIST -->
<g id="edge9" class="edge">
<title>COMMANDER&#45;&gt;STRATEGIST</title>
<path fill="none" stroke="#1565c0" stroke-dasharray="5,2" d="M154.35,-2247.92C197.39,-2269.38 271.1,-2304.35 337.35,-2327 359.03,-2334.41 383.28,-2340.84 404.97,-2345.94"/>
<polygon fill="#1565c0" stroke="#1565c0" points="404.04,-2349.32 414.57,-2348.15 405.61,-2342.5 404.04,-2349.32"/>
<text xml:space="preserve" text-anchor="middle" x="277.1" y="-2321.09" font-family="Helvetica Neue" font-size="8.00">risk map</text>
</g>
<!-- SCOUT -->
<g id="node6" class="node">
<title>SCOUT</title>
<path fill="#c8e6c9" stroke="#2e7d32" d="M517.2,-2094C517.2,-2094 421.35,-2094 421.35,-2094 415.35,-2094 409.35,-2088 409.35,-2082 409.35,-2082 409.35,-2070 409.35,-2070 409.35,-2064 415.35,-2058 421.35,-2058 421.35,-2058 517.2,-2058 517.2,-2058 523.2,-2058 529.2,-2064 529.2,-2070 529.2,-2070 529.2,-2082 529.2,-2082 529.2,-2088 523.2,-2094 517.2,-2094"/>
<text xml:space="preserve" text-anchor="start" x="451.65" y="-2076.5" font-family="Helvetica Neue" font-weight="bold" font-size="10.00">SCOUT</text>
<text xml:space="preserve" text-anchor="start" x="420.15" y="-2068.4" font-family="Helvetica Neue" font-size="8.00">Brownfield/greenfield recon</text>
</g>
<!-- COMMANDER&#45;&gt;SCOUT -->
<g id="edge3" class="edge">
<title>COMMANDER&#45;&gt;SCOUT</title>
<path fill="none" stroke="#2e7d32" d="M146.5,-2210.01C187.53,-2183.95 265.46,-2137.15 337.35,-2109 356.51,-2101.5 377.92,-2095.26 397.78,-2090.31"/>
<polygon fill="#2e7d32" stroke="#2e7d32" points="398.58,-2093.71 407.48,-2087.96 396.94,-2086.91 398.58,-2093.71"/>
<text xml:space="preserve" text-anchor="middle" x="277.1" y="-2155.72" font-family="Helvetica Neue" font-size="8.00">Phase 1</text>
</g>
<!-- SYNTHESIZER -->
<g id="node7" class="node">
<title>SYNTHESIZER</title>
<path fill="#c8e6c9" stroke="#2e7d32" d="M504.07,-2029C504.07,-2029 434.47,-2029 434.47,-2029 428.47,-2029 422.47,-2023 422.47,-2017 422.47,-2017 422.47,-2005 422.47,-2005 422.47,-1999 428.47,-1993 434.47,-1993 434.47,-1993 504.07,-1993 504.07,-1993 510.07,-1993 516.07,-1999 516.07,-2005 516.07,-2005 516.07,-2017 516.07,-2017 516.07,-2023 510.07,-2029 504.07,-2029"/>
<text xml:space="preserve" text-anchor="start" x="433.27" y="-2011.5" font-family="Helvetica Neue" font-weight="bold" font-size="10.00">SYNTHESIZER</text>
<text xml:space="preserve" text-anchor="start" x="434.02" y="-2003.4" font-family="Helvetica Neue" font-size="8.00">Cross&#45;source fusion</text>
</g>
<!-- COMMANDER&#45;&gt;SYNTHESIZER -->
<g id="edge4" class="edge">
<title>COMMANDER&#45;&gt;SYNTHESIZER</title>
<path fill="none" stroke="#2e7d32" d="M133.07,-2210.22C166.27,-2171.81 248.05,-2084.48 337.35,-2044 360.47,-2033.52 387.45,-2026 410.9,-2020.82"/>
<polygon fill="#2e7d32" stroke="#2e7d32" points="411.55,-2024.26 420.61,-2018.77 410.1,-2017.41 411.55,-2024.26"/>
</g>
<!-- SAGE -->
<g id="node8" class="node">
<title>SAGE</title>
<path fill="#a5d6a7" stroke="#1b5e20" stroke-width="2" d="M517.2,-1964C517.2,-1964 421.35,-1964 421.35,-1964 415.35,-1964 409.35,-1958 409.35,-1952 409.35,-1952 409.35,-1940 409.35,-1940 409.35,-1934 415.35,-1928 421.35,-1928 421.35,-1928 517.2,-1928 517.2,-1928 523.2,-1928 529.2,-1934 529.2,-1940 529.2,-1940 529.2,-1952 529.2,-1952 529.2,-1958 523.2,-1964 517.2,-1964"/>
<text xml:space="preserve" text-anchor="start" x="455.4" y="-1946.5" font-family="Helvetica Neue" font-weight="bold" font-size="10.00">SAGE</text>
<text xml:space="preserve" text-anchor="start" x="420.15" y="-1938.4" font-family="Helvetica Neue" font-size="8.00">Adversarial critic (BLOCKS)</text>
</g>
<!-- COMMANDER&#45;&gt;SAGE -->
<g id="edge6" class="edge">
<title>COMMANDER&#45;&gt;SAGE</title>
<path fill="none" stroke="#2e7d32" stroke-width="2" d="M126.01,-2210.24C143.29,-2174.02 185.21,-2093.39 238.85,-2040.5 275.6,-2004.26 289.86,-1999.22 337.35,-1979 355.84,-1971.13 376.62,-1964.83 396.1,-1959.93"/>
<polygon fill="#2e7d32" stroke="#2e7d32" stroke-width="2" points="396.82,-1963.36 405.72,-1957.62 395.18,-1956.55 396.82,-1963.36"/>
<text xml:space="preserve" text-anchor="middle" x="277.1" y="-2043.4" font-family="Helvetica Neue" font-size="8.00">WHY1/2/3</text>
</g>
<!-- CARTOGRAPHER -->
<g id="node9" class="node">
<title>CARTOGRAPHER</title>
<path fill="#c8e6c9" stroke="#2e7d32" d="M510.82,-1899C510.82,-1899 427.72,-1899 427.72,-1899 421.72,-1899 415.72,-1893 415.72,-1887 415.72,-1887 415.72,-1875 415.72,-1875 415.72,-1869 421.72,-1863 427.72,-1863 427.72,-1863 510.82,-1863 510.82,-1863 516.82,-1863 522.82,-1869 522.82,-1875 522.82,-1875 522.82,-1887 522.82,-1887 522.82,-1893 516.82,-1899 510.82,-1899"/>
<text xml:space="preserve" text-anchor="start" x="426.52" y="-1881.5" font-family="Helvetica Neue" font-weight="bold" font-size="10.00">CARTOGRAPHER</text>
<text xml:space="preserve" text-anchor="start" x="431.02" y="-1873.4" font-family="Helvetica Neue" font-size="8.00">Requirements definer</text>
</g>
<!-- COMMANDER&#45;&gt;CARTOGRAPHER -->
<g id="edge7" class="edge">
<title>COMMANDER&#45;&gt;CARTOGRAPHER</title>
<path fill="none" stroke="#2e7d32" d="M123.04,-2210.1C136.85,-2166.07 175.96,-2054.91 238.85,-1982 273.6,-1941.72 288.9,-1935.96 337.35,-1914 358.35,-1904.48 382.54,-1897.41 404.37,-1892.3"/>
<polygon fill="#2e7d32" stroke="#2e7d32" points="405.06,-1895.73 414.06,-1890.14 403.54,-1888.9 405.06,-1895.73"/>
</g>
<!-- GATEKEEPER -->
<g id="node11" class="node">
<title>GATEKEEPER</title>
<path fill="#ffe0b2" stroke="#e65100" stroke-width="2" d="M503.7,-1746C503.7,-1746 434.85,-1746 434.85,-1746 428.85,-1746 422.85,-1740 422.85,-1734 422.85,-1734 422.85,-1722 422.85,-1722 422.85,-1716 428.85,-1710 434.85,-1710 434.85,-1710 503.7,-1710 503.7,-1710 509.7,-1710 515.7,-1716 515.7,-1722 515.7,-1722 515.7,-1734 515.7,-1734 515.7,-1740 509.7,-1746 503.7,-1746"/>
<text xml:space="preserve" text-anchor="start" x="434.77" y="-1728.5" font-family="Helvetica Neue" font-weight="bold" font-size="10.00">GATEKEEPER</text>
<text xml:space="preserve" text-anchor="start" x="433.65" y="-1720.4" font-family="Helvetica Neue" font-size="8.00">Kill gate / estimation</text>
</g>
<!-- COMMANDER&#45;&gt;GATEKEEPER -->
<g id="edge8" class="edge">
<title>COMMANDER&#45;&gt;GATEKEEPER</title>
<path fill="none" stroke="#e65100" d="M119.73,-2210.08C129.7,-2137.38 176.16,-1874.35 337.35,-1761 358.79,-1745.93 386.47,-1737.72 410.85,-1733.27"/>
<polygon fill="#e65100" stroke="#e65100" points="411.35,-1736.73 420.66,-1731.66 410.22,-1729.82 411.35,-1736.73"/>
<text xml:space="preserve" text-anchor="middle" x="277.1" y="-1863.34" font-family="Helvetica Neue" font-size="8.00">Phase 2</text>
</g>
<!-- ARCHITECT -->
<g id="node13" class="node">
<title>ARCHITECT</title>
<path fill="#e1bee7" stroke="#6a1b9a" d="M501.45,-1658C501.45,-1658 437.1,-1658 437.1,-1658 431.1,-1658 425.1,-1652 425.1,-1646 425.1,-1646 425.1,-1634 425.1,-1634 425.1,-1628 431.1,-1622 437.1,-1622 437.1,-1622 501.45,-1622 501.45,-1622 507.45,-1622 513.45,-1628 513.45,-1634 513.45,-1634 513.45,-1646 513.45,-1646 513.45,-1652 507.45,-1658 501.45,-1658"/>
<text xml:space="preserve" text-anchor="start" x="440.02" y="-1640.5" font-family="Helvetica Neue" font-weight="bold" font-size="10.00">ARCHITECT</text>
<text xml:space="preserve" text-anchor="start" x="435.9" y="-1632.4" font-family="Helvetica Neue" font-size="8.00">Tech stack / ADRs</text>
</g>
<!-- COMMANDER&#45;&gt;ARCHITECT -->
<g id="edge10" class="edge">
<title>COMMANDER&#45;&gt;ARCHITECT</title>
<path fill="none" stroke="#6a1b9a" d="M118.1,-2210.15C121.3,-2143.92 139.34,-1917.86 238.85,-1769.5 279.97,-1708.2 360.42,-1672.72 414.27,-1654.87"/>
<polygon fill="#6a1b9a" stroke="#6a1b9a" points="415.11,-1658.28 423.56,-1651.89 412.97,-1651.61 415.11,-1658.28"/>
<text xml:space="preserve" text-anchor="middle" x="277.1" y="-1772.4" font-family="Helvetica Neue" font-size="8.00">Phase 3</text>
</g>
<!-- ORCHESTRATOR -->
<g id="node14" class="node">
<title>ORCHESTRATOR</title>
<path fill="#e1bee7" stroke="#6a1b9a" d="M521.7,-1593C521.7,-1593 416.85,-1593 416.85,-1593 410.85,-1593 404.85,-1587 404.85,-1581 404.85,-1581 404.85,-1569 404.85,-1569 404.85,-1563 410.85,-1557 416.85,-1557 416.85,-1557 521.7,-1557 521.7,-1557 527.7,-1557 533.7,-1563 533.7,-1569 533.7,-1569 533.7,-1581 533.7,-1581 533.7,-1587 527.7,-1593 521.7,-1593"/>
<text xml:space="preserve" text-anchor="start" x="426.9" y="-1575.5" font-family="Helvetica Neue" font-weight="bold" font-size="10.00">ORCHESTRATOR</text>
<text xml:space="preserve" text-anchor="start" x="415.65" y="-1567.4" font-family="Helvetica Neue" font-size="8.00">Task breakdown / critical path</text>
</g>
<!-- COMMANDER&#45;&gt;ORCHESTRATOR -->
<g id="edge12" class="edge">
<title>COMMANDER&#45;&gt;ORCHESTRATOR</title>
<path fill="none" stroke="#6a1b9a" d="M117.63,-2210.47C119.22,-2138.76 132.37,-1874.48 238.85,-1695 268.65,-1644.77 285.68,-1635.24 337.35,-1608 354.6,-1598.91 374.46,-1592.24 393.41,-1587.38"/>
<polygon fill="#6a1b9a" stroke="#6a1b9a" points="394.07,-1590.82 402.97,-1585.08 392.43,-1584.02 394.07,-1590.82"/>
</g>
<!-- SENTINEL -->
<g id="node15" class="node">
<title>SENTINEL</title>
<path fill="#ce93d8" stroke="#4a148c" stroke-width="2" d="M513.07,-1528C513.07,-1528 425.47,-1528 425.47,-1528 419.47,-1528 413.47,-1522 413.47,-1516 413.47,-1516 413.47,-1504 413.47,-1504 413.47,-1498 419.47,-1492 425.47,-1492 425.47,-1492 513.07,-1492 513.07,-1492 519.07,-1492 525.07,-1498 525.07,-1504 525.07,-1504 525.07,-1516 525.07,-1516 525.07,-1522 519.07,-1528 513.07,-1528"/>
<text xml:space="preserve" text-anchor="start" x="444.15" y="-1510.5" font-family="Helvetica Neue" font-weight="bold" font-size="10.00">SENTINEL</text>
<text xml:space="preserve" text-anchor="start" x="424.27" y="-1502.4" font-family="Helvetica Neue" font-size="8.00">Test strategy (mandatory)</text>
</g>
<!-- COMMANDER&#45;&gt;SENTINEL -->
<g id="edge11" class="edge">
<title>COMMANDER&#45;&gt;SENTINEL</title>
<path fill="none" stroke="#6a1b9a" d="M119.25,-2210.17C128.45,-2118.22 171.92,-1716.56 238.85,-1613 274.47,-1557.88 347.36,-1531.98 401.46,-1519.99"/>
<polygon fill="#6a1b9a" stroke="#6a1b9a" points="402.15,-1523.42 411.22,-1517.95 400.72,-1516.57 402.15,-1523.42"/>
</g>
<!-- INVESTIGATOR -->
<g id="node16" class="node">
<title>INVESTIGATOR</title>
<path fill="#fff9c4" stroke="#f57f17" d="M505.2,-1440C505.2,-1440 433.35,-1440 433.35,-1440 427.35,-1440 421.35,-1434 421.35,-1428 421.35,-1428 421.35,-1416 421.35,-1416 421.35,-1410 427.35,-1404 433.35,-1404 433.35,-1404 505.2,-1404 505.2,-1404 511.2,-1404 517.2,-1410 517.2,-1416 517.2,-1416 517.2,-1428 517.2,-1428 517.2,-1434 511.2,-1440 505.2,-1440"/>
<text xml:space="preserve" text-anchor="start" x="432.15" y="-1422.5" font-family="Helvetica Neue" font-weight="bold" font-size="10.00">INVESTIGATOR</text>
<text xml:space="preserve" text-anchor="start" x="438.15" y="-1414.4" font-family="Helvetica Neue" font-size="8.00">Scientific method</text>
</g>
<!-- COMMANDER&#45;&gt;INVESTIGATOR -->
<g id="edge27" class="edge">
<title>COMMANDER&#45;&gt;INVESTIGATOR</title>
<path fill="none" stroke="#f57f17" stroke-dasharray="5,2" d="M118.53,-2210.22C124.68,-2110.75 157.47,-1645.76 238.85,-1531.5 279.13,-1474.95 356.54,-1446.55 410.23,-1433.06"/>
<polygon fill="#f57f17" stroke="#f57f17" points="410.93,-1436.49 419.84,-1430.76 409.3,-1429.69 410.93,-1436.49"/>
<text xml:space="preserve" text-anchor="middle" x="277.1" y="-1534.4" font-family="Helvetica Neue" font-size="8.00">unknowns</text>
</g>
<!-- GUARDIAN -->
<g id="node17" class="node">
<title>GUARDIAN</title>
<path fill="#fff9c4" stroke="#f57f17" d="M500.7,-1180C500.7,-1180 437.85,-1180 437.85,-1180 431.85,-1180 425.85,-1174 425.85,-1168 425.85,-1168 425.85,-1156 425.85,-1156 425.85,-1150 431.85,-1144 437.85,-1144 437.85,-1144 500.7,-1144 500.7,-1144 506.7,-1144 512.7,-1150 512.7,-1156 512.7,-1156 512.7,-1168 512.7,-1168 512.7,-1174 506.7,-1180 500.7,-1180"/>
<text xml:space="preserve" text-anchor="start" x="442.27" y="-1162.5" font-family="Helvetica Neue" font-weight="bold" font-size="10.00">GUARDIAN</text>
<text xml:space="preserve" text-anchor="start" x="436.65" y="-1154.4" font-family="Helvetica Neue" font-size="8.00">STRIDE / OWASP</text>
</g>
<!-- COMMANDER&#45;&gt;GUARDIAN -->
<g id="edge28" class="edge">
<title>COMMANDER&#45;&gt;GUARDIAN</title>
<path fill="none" stroke="#f57f17" stroke-dasharray="5,2" d="M118.91,-2210.07C126.07,-2122.51 160.03,-1748.51 238.85,-1452.5 270.38,-1334.09 245.73,-1276.36 337.35,-1195 358.34,-1176.36 388.35,-1167.93 414.35,-1164.25"/>
<polygon fill="#f57f17" stroke="#f57f17" points="414.56,-1167.75 424.08,-1163.09 413.73,-1160.8 414.56,-1167.75"/>
<text xml:space="preserve" text-anchor="middle" x="277.1" y="-1455.4" font-family="Helvetica Neue" font-size="8.00">auth/PII</text>
</g>
<!-- MAVERICK -->
<g id="node21" class="node">
<title>MAVERICK</title>
<path fill="#fff9c4" stroke="#f57f17" d="M505.2,-1115C505.2,-1115 433.35,-1115 433.35,-1115 427.35,-1115 421.35,-1109 421.35,-1103 421.35,-1103 421.35,-1091 421.35,-1091 421.35,-1085 427.35,-1079 433.35,-1079 433.35,-1079 505.2,-1079 505.2,-1079 511.2,-1079 517.2,-1085 517.2,-1091 517.2,-1091 517.2,-1103 517.2,-1103 517.2,-1109 511.2,-1115 505.2,-1115"/>
<text xml:space="preserve" text-anchor="start" x="442.27" y="-1097.5" font-family="Helvetica Neue" font-weight="bold" font-size="10.00">MAVERICK</text>
<text xml:space="preserve" text-anchor="start" x="432.15" y="-1089.4" font-family="Helvetica Neue" font-size="8.00">TRIZ / first principles</text>
</g>
<!-- COMMANDER&#45;&gt;MAVERICK -->
<g id="edge29" class="edge">
<title>COMMANDER&#45;&gt;MAVERICK</title>
<path fill="none" stroke="#f57f17" stroke-dasharray="5,2" d="M117.62,-2210.38C119.22,-2086.61 132.9,-1382.22 238.85,-1201.5 274.16,-1141.27 354.54,-1115.53 410.11,-1104.68"/>
<polygon fill="#f57f17" stroke="#f57f17" points="410.53,-1108.16 419.74,-1102.91 409.27,-1101.27 410.53,-1108.16"/>
<text xml:space="preserve" text-anchor="middle" x="277.1" y="-1204.4" font-family="Helvetica Neue" font-size="8.00">stagnation</text>
</g>
<!-- IMPLEMENTER -->
<g id="node22" class="node">
<title>IMPLEMENTER</title>
<path fill="#f8bbd0" stroke="#c62828" d="M505.57,-637C505.57,-637 432.97,-637 432.97,-637 426.97,-637 420.97,-631 420.97,-625 420.97,-625 420.97,-613 420.97,-613 420.97,-607 426.97,-601 432.97,-601 432.97,-601 505.57,-601 505.57,-601 511.57,-601 517.57,-607 517.57,-613 517.57,-613 517.57,-625 517.57,-625 517.57,-631 511.57,-637 505.57,-637"/>
<text xml:space="preserve" text-anchor="start" x="431.77" y="-619.5" font-family="Helvetica Neue" font-weight="bold" font-size="10.00">IMPLEMENTER</text>
<text xml:space="preserve" text-anchor="start" x="446.77" y="-611.4" font-family="Helvetica Neue" font-size="8.00">Code + tests</text>
</g>
<!-- COMMANDER&#45;&gt;IMPLEMENTER -->
<g id="edge13" class="edge">
<title>COMMANDER&#45;&gt;IMPLEMENTER</title>
<path fill="none" stroke="#c62828" d="M118.77,-2210.25C126.63,-2103.17 168.52,-1558.5 238.85,-1118.5 272.3,-909.25 190.45,-804.72 337.35,-652 355.88,-632.74 383.88,-624.09 409.24,-620.42"/>
<polygon fill="#c62828" stroke="#c62828" points="409.64,-623.89 419.16,-619.24 408.81,-616.94 409.64,-623.89"/>
<text xml:space="preserve" text-anchor="middle" x="277.1" y="-1121.4" font-family="Helvetica Neue" font-size="8.00">Phase 4</text>
</g>
<!-- MIRROR -->
<g id="node33" class="node">
<title>MIRROR</title>
<path fill="#cfd8dc" stroke="#37474f" d="M501.07,-419C501.07,-419 437.47,-419 437.47,-419 431.47,-419 425.47,-413 425.47,-407 425.47,-407 425.47,-395 425.47,-395 425.47,-389 431.47,-383 437.47,-383 437.47,-383 501.07,-383 501.07,-383 507.07,-383 513.07,-389 513.07,-395 513.07,-395 513.07,-407 513.07,-407 513.07,-413 507.07,-419 501.07,-419"/>
<text xml:space="preserve" text-anchor="start" x="448.27" y="-401.5" font-family="Helvetica Neue" font-weight="bold" font-size="10.00">MIRROR</text>
<text xml:space="preserve" text-anchor="start" x="436.27" y="-393.4" font-family="Helvetica Neue" font-size="8.00">Post&#45;run reflection</text>
</g>
<!-- COMMANDER&#45;&gt;MIRROR -->
<g id="edge22" class="edge">
<title>COMMANDER&#45;&gt;MIRROR</title>
<path fill="none" stroke="#37474f" d="M118.03,-2210.06C123.15,-2053.83 160.96,-975.78 238.85,-661.5 245.48,-634.76 316.36,-451.84 337.35,-434 358.59,-415.95 388.34,-407.55 414.12,-403.72"/>
<polygon fill="#37474f" stroke="#37474f" points="414.28,-407.23 423.76,-402.5 413.4,-400.29 414.28,-407.23"/>
<text xml:space="preserve" text-anchor="middle" x="277.1" y="-664.4" font-family="Helvetica Neue" font-size="8.00">Finalize</text>
</g>
<!-- ADAPTIVE -->
<g id="node34" class="node">
<title>ADAPTIVE</title>
<path fill="#cfd8dc" stroke="#37474f" d="M502.57,-354C502.57,-354 435.97,-354 435.97,-354 429.97,-354 423.97,-348 423.97,-342 423.97,-342 423.97,-330 423.97,-330 423.97,-324 429.97,-318 435.97,-318 435.97,-318 502.57,-318 502.57,-318 508.57,-318 514.57,-324 514.57,-330 514.57,-330 514.57,-342 514.57,-342 514.57,-348 508.57,-354 502.57,-354"/>
<text xml:space="preserve" text-anchor="start" x="444.52" y="-336.5" font-family="Helvetica Neue" font-weight="bold" font-size="10.00">ADAPTIVE</text>
<text xml:space="preserve" text-anchor="start" x="434.77" y="-328.4" font-family="Helvetica Neue" font-size="8.00">Cross&#45;run evolution</text>
</g>
<!-- COMMANDER&#45;&gt;ADAPTIVE -->
<g id="edge23" class="edge">
<title>COMMANDER&#45;&gt;ADAPTIVE</title>
<path fill="none" stroke="#37474f" d="M117.91,-2210.03C122.56,-2030.3 161.17,-630.69 238.85,-464 264.54,-408.87 284.18,-398.54 337.35,-369 360.35,-356.22 388.34,-348.31 412.53,-343.45"/>
<polygon fill="#37474f" stroke="#37474f" points="413.03,-346.91 422.22,-341.64 411.75,-340.03 413.03,-346.91"/>
</g>
<!-- AUDITOR -->
<g id="node35" class="node">
<title>AUDITOR</title>
<path fill="#cfd8dc" stroke="#37474f" d="M508.57,-289C508.57,-289 429.97,-289 429.97,-289 423.97,-289 417.97,-283 417.97,-277 417.97,-277 417.97,-265 417.97,-265 417.97,-259 423.97,-253 429.97,-253 429.97,-253 508.57,-253 508.57,-253 514.57,-253 520.57,-259 520.57,-265 520.57,-265 520.57,-277 520.57,-277 520.57,-283 514.57,-289 508.57,-289"/>
<text xml:space="preserve" text-anchor="start" x="446.4" y="-271.5" font-family="Helvetica Neue" font-weight="bold" font-size="10.00">AUDITOR</text>
<text xml:space="preserve" text-anchor="start" x="428.77" y="-263.4" font-family="Helvetica Neue" font-size="8.00">Confidence calibration</text>
</g>
<!-- COMMANDER&#45;&gt;AUDITOR -->
<g id="edge24" class="edge">
<title>COMMANDER&#45;&gt;AUDITOR</title>
<path fill="none" stroke="#37474f" d="M117.69,-2210.16C120.41,-2025.66 145.08,-544.3 238.85,-375 272.05,-315.05 350.57,-289.53 406.49,-278.74"/>
<polygon fill="#37474f" stroke="#37474f" points="406.99,-282.21 416.21,-276.99 405.75,-275.32 406.99,-282.21"/>
</g>
<!-- REALIST -->
<g id="node36" class="node">
<title>REALIST</title>
<path fill="#cfd8dc" stroke="#37474f" d="M505.2,-224C505.2,-224 433.35,-224 433.35,-224 427.35,-224 421.35,-218 421.35,-212 421.35,-212 421.35,-200 421.35,-200 421.35,-194 427.35,-188 433.35,-188 433.35,-188 505.2,-188 505.2,-188 511.2,-188 517.2,-194 517.2,-200 517.2,-200 517.2,-212 517.2,-212 517.2,-218 511.2,-224 505.2,-224"/>
<text xml:space="preserve" text-anchor="start" x="447.9" y="-206.5" font-family="Helvetica Neue" font-weight="bold" font-size="10.00">REALIST</text>
<text xml:space="preserve" text-anchor="start" x="432.15" y="-198.4" font-family="Helvetica Neue" font-size="8.00">Reality check / costs</text>
</g>
<!-- COMMANDER&#45;&gt;REALIST -->
<g id="edge25" class="edge">
<title>COMMANDER&#45;&gt;REALIST</title>
<path fill="none" stroke="#37474f" d="M117.58,-2210.28C119.31,-2022.14 136.61,-475.57 238.85,-302 273.81,-242.66 354.27,-220 409.96,-211.34"/>
<polygon fill="#37474f" stroke="#37474f" points="410.2,-214.85 419.6,-209.96 409.21,-207.92 410.2,-214.85"/>
</g>
<!-- PRE_GATE -->
<g id="node39" class="node">
<title>PRE_GATE</title>
<path fill="#ffcdd2" stroke="#b71c1c" d="M579.37,-109.88C579.37,-109.88 579.37,-116.12 579.37,-116.12 579.37,-119.24 576.32,-122.99 573.26,-123.61 573.26,-123.61 520.99,-134.34 520.99,-134.34 517.93,-134.97 511.76,-135.59 508.64,-135.59 508.64,-135.59 429.91,-135.59 429.91,-135.59 426.79,-135.59 420.62,-134.97 417.56,-134.34 417.56,-134.34 365.29,-123.61 365.29,-123.61 362.23,-122.99 359.18,-119.24 359.18,-116.12 359.18,-116.12 359.18,-109.88 359.18,-109.88 359.18,-106.76 362.23,-103.01 365.29,-102.39 365.29,-102.39 417.56,-91.66 417.56,-91.66 420.62,-91.03 426.79,-90.41 429.91,-90.41 429.91,-90.41 508.64,-90.41 508.64,-90.41 511.76,-90.41 517.93,-91.03 520.99,-91.66 520.99,-91.66 573.26,-102.39 573.26,-102.39 576.32,-103.01 579.37,-106.76 579.37,-109.88"/>
<text xml:space="preserve" text-anchor="start" x="419.02" y="-113.5" font-family="Helvetica Neue" font-weight="bold" font-size="10.00">pre&#45;dispatch&#45;gate.sh</text>
<text xml:space="preserve" text-anchor="start" x="408.15" y="-105.4" font-family="Helvetica Neue" font-size="8.00">Phase sequence / retry / temporal</text>
</g>
<!-- COMMANDER&#45;&gt;PRE_GATE -->
<g id="edge1" class="edge">
<title>COMMANDER&#45;&gt;PRE_GATE</title>
<path fill="none" stroke="#b71c1c" stroke-width="2" d="M117.43,-2210.04C117.6,-2016.11 122.54,-396.4 238.85,-221.5 269.83,-174.91 326.53,-147.84 375.81,-132.4"/>
<polygon fill="#b71c1c" stroke="#b71c1c" stroke-width="2" points="376.67,-135.79 385.26,-129.58 374.67,-129.08 376.67,-135.79"/>
<text xml:space="preserve" text-anchor="middle" x="277.1" y="-224.4" font-family="Helvetica Neue" font-size="8.00">before every dispatch</text>
</g>
<!-- CHECKPOINT -->
<g id="node4" class="node">
<title>CHECKPOINT</title>
<path fill="#bbdefb" stroke="#1565c0" d="M150.85,-2344C150.85,-2344 82,-2344 82,-2344 76,-2344 70,-2338 70,-2332 70,-2332 70,-2320 70,-2320 70,-2314 76,-2308 82,-2308 82,-2308 150.85,-2308 150.85,-2308 156.85,-2308 162.85,-2314 162.85,-2320 162.85,-2320 162.85,-2332 162.85,-2332 162.85,-2338 156.85,-2344 150.85,-2344"/>
<text xml:space="preserve" text-anchor="start" x="82.67" y="-2326.5" font-family="Helvetica Neue" font-weight="bold" font-size="10.00">CHECKPOINT</text>
<text xml:space="preserve" text-anchor="start" x="80.8" y="-2318.4" font-family="Helvetica Neue" font-size="8.00">Internalization gates</text>
</g>
<!-- MODELER -->
<g id="node10" class="node">
<title>MODELER</title>
<path fill="#c8e6c9" stroke="#2e7d32" d="M495.82,-2159C495.82,-2159 442.72,-2159 442.72,-2159 436.72,-2159 430.72,-2153 430.72,-2147 430.72,-2147 430.72,-2135 430.72,-2135 430.72,-2129 436.72,-2123 442.72,-2123 442.72,-2123 495.82,-2123 495.82,-2123 501.82,-2123 507.82,-2129 507.82,-2135 507.82,-2135 507.82,-2147 507.82,-2147 507.82,-2153 501.82,-2159 495.82,-2159"/>
<text xml:space="preserve" text-anchor="start" x="443.77" y="-2141.5" font-family="Helvetica Neue" font-weight="bold" font-size="10.00">MODELER</text>
<text xml:space="preserve" text-anchor="start" x="441.52" y="-2133.4" font-family="Helvetica Neue" font-size="8.00">Code invariants</text>
</g>
<!-- VALIDATOR -->
<g id="node12" class="node">
<title>VALIDATOR</title>
<path fill="#ffe0b2" stroke="#e65100" d="M510.45,-1811C510.45,-1811 428.1,-1811 428.1,-1811 422.1,-1811 416.1,-1805 416.1,-1799 416.1,-1799 416.1,-1787 416.1,-1787 416.1,-1781 422.1,-1775 428.1,-1775 428.1,-1775 510.45,-1775 510.45,-1775 516.45,-1775 522.45,-1781 522.45,-1787 522.45,-1787 522.45,-1799 522.45,-1799 522.45,-1805 516.45,-1811 510.45,-1811"/>
<text xml:space="preserve" text-anchor="start" x="440.77" y="-1793.5" font-family="Helvetica Neue" font-weight="bold" font-size="10.00">VALIDATOR</text>
<text xml:space="preserve" text-anchor="start" x="426.9" y="-1785.4" font-family="Helvetica Neue" font-size="8.00">Backpropagation 100%</text>
</g>
<!-- BENCHMARK -->
<g id="node18" class="node">
<title>BENCHMARK</title>
<path fill="#fff9c4" stroke="#f57f17" d="M501.45,-1245C501.45,-1245 437.1,-1245 437.1,-1245 431.1,-1245 425.1,-1239 425.1,-1233 425.1,-1233 425.1,-1221 425.1,-1221 425.1,-1215 431.1,-1209 437.1,-1209 437.1,-1209 501.45,-1209 501.45,-1209 507.45,-1209 513.45,-1215 513.45,-1221 513.45,-1221 513.45,-1233 513.45,-1233 513.45,-1239 507.45,-1245 501.45,-1245"/>
<text xml:space="preserve" text-anchor="start" x="435.9" y="-1227.5" font-family="Helvetica Neue" font-weight="bold" font-size="10.00">BENCHMARK</text>
<text xml:space="preserve" text-anchor="start" x="443.02" y="-1219.4" font-family="Helvetica Neue" font-size="8.00">Load modeling</text>
</g>
<!-- ADVOCATE -->
<g id="node19" class="node">
<title>ADVOCATE</title>
<path fill="#fff9c4" stroke="#f57f17" d="M495.45,-1310C495.45,-1310 443.1,-1310 443.1,-1310 437.1,-1310 431.1,-1304 431.1,-1298 431.1,-1298 431.1,-1286 431.1,-1286 431.1,-1280 437.1,-1274 443.1,-1274 443.1,-1274 495.45,-1274 495.45,-1274 501.45,-1274 507.45,-1280 507.45,-1286 507.45,-1286 507.45,-1298 507.45,-1298 507.45,-1304 501.45,-1310 495.45,-1310"/>
<text xml:space="preserve" text-anchor="start" x="441.9" y="-1292.5" font-family="Helvetica Neue" font-weight="bold" font-size="10.00">ADVOCATE</text>
<text xml:space="preserve" text-anchor="start" x="444.52" y="-1284.4" font-family="Helvetica Neue" font-size="8.00">WCAG / a11y</text>
</g>
<!-- ORACLE -->
<g id="node20" class="node">
<title>ORACLE</title>
<path fill="#fff9c4" stroke="#f57f17" d="M494.7,-1375C494.7,-1375 443.85,-1375 443.85,-1375 437.85,-1375 431.85,-1369 431.85,-1363 431.85,-1363 431.85,-1351 431.85,-1351 431.85,-1345 437.85,-1339 443.85,-1339 443.85,-1339 494.7,-1339 494.7,-1339 500.7,-1339 506.7,-1345 506.7,-1351 506.7,-1351 506.7,-1363 506.7,-1363 506.7,-1369 500.7,-1375 494.7,-1375"/>
<text xml:space="preserve" text-anchor="start" x="448.27" y="-1357.5" font-family="Helvetica Neue" font-weight="bold" font-size="10.00">ORACLE</text>
<text xml:space="preserve" text-anchor="start" x="442.65" y="-1349.4" font-family="Helvetica Neue" font-size="8.00">Domain expert</text>
</g>
<!-- SPEC_GUARD -->
<g id="node23" class="node">
<title>SPEC_GUARD</title>
<path fill="#f8bbd0" stroke="#c62828" d="M827.67,-648C827.67,-648 762.57,-648 762.57,-648 756.57,-648 750.57,-642 750.57,-636 750.57,-636 750.57,-624 750.57,-624 750.57,-618 756.57,-612 762.57,-612 762.57,-612 827.67,-612 827.67,-612 833.67,-612 839.67,-618 839.67,-624 839.67,-624 839.67,-636 839.67,-636 839.67,-642 833.67,-648 827.67,-648"/>
<text xml:space="preserve" text-anchor="start" x="761.37" y="-630.5" font-family="Helvetica Neue" font-weight="bold" font-size="10.00">SPEC GUARD</text>
<text xml:space="preserve" text-anchor="start" x="764" y="-622.4" font-family="Helvetica Neue" font-size="8.00">Spec compliance</text>
</g>
<!-- IMPLEMENTER&#45;&gt;SPEC_GUARD -->
<g id="edge14" class="edge">
<title>IMPLEMENTER&#45;&gt;SPEC_GUARD</title>
<path fill="none" stroke="#c62828" stroke-width="1.5" d="M518.06,-620.62C576.78,-622.62 676.25,-626 738.39,-628.11"/>
<polygon fill="#c62828" stroke="#c62828" stroke-width="1.5" points="737.92,-631.59 748.03,-628.43 738.16,-624.6 737.92,-631.59"/>
<text xml:space="preserve" text-anchor="middle" x="644.57" y="-628.39" font-family="Helvetica Neue" font-size="8.00">gate 1</text>
</g>
<!-- SPEC_GUARD&#45;&gt;IMPLEMENTER -->
<g id="edge18" class="edge">
<title>SPEC_GUARD&#45;&gt;IMPLEMENTER</title>
<path fill="none" stroke="#ff5252" stroke-dasharray="5,2" d="M750.31,-635.55C725.59,-638.4 694.1,-641.58 665.95,-643 646.97,-643.96 642.14,-644.48 623.2,-643 592,-640.57 557.54,-635.38 529.24,-630.45"/>
<polygon fill="#ff5252" stroke="#ff5252" points="529.87,-627.01 519.41,-628.7 528.64,-633.9 529.87,-627.01"/>
<text xml:space="preserve" text-anchor="middle" x="644.57" y="-646.82" font-family="Helvetica Neue" font-size="8.00">FAIL</text>
</g>
<!-- CODE_REVIEWER -->
<g id="node24" class="node">
<title>CODE_REVIEWER</title>
<path fill="#f8bbd0" stroke="#c62828" d="M1126.9,-648C1126.9,-648 1043.05,-648 1043.05,-648 1037.05,-648 1031.05,-642 1031.05,-636 1031.05,-636 1031.05,-624 1031.05,-624 1031.05,-618 1037.05,-612 1043.05,-612 1043.05,-612 1126.9,-612 1126.9,-612 1132.9,-612 1138.9,-618 1138.9,-624 1138.9,-624 1138.9,-636 1138.9,-636 1138.9,-642 1132.9,-648 1126.9,-648"/>
<text xml:space="preserve" text-anchor="start" x="1041.85" y="-630.5" font-family="Helvetica Neue" font-weight="bold" font-size="10.00">CODE REVIEWER</text>
<text xml:space="preserve" text-anchor="start" x="1047.85" y="-622.4" font-family="Helvetica Neue" font-size="8.00">Quality + ADR check</text>
</g>
<!-- SPEC_GUARD&#45;&gt;CODE_REVIEWER -->
<g id="edge15" class="edge">
<title>SPEC_GUARD&#45;&gt;CODE_REVIEWER</title>
<path fill="none" stroke="#c62828" stroke-width="1.5" d="M840.16,-630C887.74,-630 964.08,-630 1018.65,-630"/>
<polygon fill="#c62828" stroke="#c62828" stroke-width="1.5" points="1018.37,-633.5 1028.37,-630 1018.37,-626.5 1018.37,-633.5"/>
<text xml:space="preserve" text-anchor="middle" x="935.55" y="-632.9" font-family="Helvetica Neue" font-size="8.00">gate 2</text>
</g>
<!-- CODE_REVIEWER&#45;&gt;IMPLEMENTER -->
<g id="edge19" class="edge">
<title>CODE_REVIEWER&#45;&gt;IMPLEMENTER</title>
<path fill="none" stroke="#ff5252" stroke-dasharray="5,2" d="M1030.79,-642.95C944.31,-661.93 768.28,-691.86 623.2,-661 612.87,-658.8 611.24,-655.3 601.2,-652 577.96,-644.36 551.91,-637.46 529.2,-631.98"/>
<polygon fill="#ff5252" stroke="#ff5252" points="530.02,-628.57 519.48,-629.67 528.4,-635.38 530.02,-628.57"/>
<text xml:space="preserve" text-anchor="middle" x="795.12" y="-677.21" font-family="Helvetica Neue" font-size="8.00">CHANGES</text>
</g>
<!-- TEST_GUARDIAN -->
<g id="node25" class="node">
<title>TEST_GUARDIAN</title>
<path fill="#f8bbd0" stroke="#c62828" d="M1359.75,-648C1359.75,-648 1279.65,-648 1279.65,-648 1273.65,-648 1267.65,-642 1267.65,-636 1267.65,-636 1267.65,-624 1267.65,-624 1267.65,-618 1273.65,-612 1279.65,-612 1279.65,-612 1359.75,-612 1359.75,-612 1365.75,-612 1371.75,-618 1371.75,-624 1371.75,-624 1371.75,-636 1371.75,-636 1371.75,-642 1365.75,-648 1359.75,-648"/>
<text xml:space="preserve" text-anchor="start" x="1278.45" y="-630.5" font-family="Helvetica Neue" font-weight="bold" font-size="10.00">TEST GUARDIAN</text>
<text xml:space="preserve" text-anchor="start" x="1300.2" y="-622.4" font-family="Helvetica Neue" font-size="8.00">Test quality</text>
</g>
<!-- CODE_REVIEWER&#45;&gt;TEST_GUARDIAN -->
<g id="edge16" class="edge">
<title>CODE_REVIEWER&#45;&gt;TEST_GUARDIAN</title>
<path fill="none" stroke="#c62828" stroke-width="1.5" d="M1139.37,-630C1173.85,-630 1218.89,-630 1255.2,-630"/>
<polygon fill="#c62828" stroke="#c62828" stroke-width="1.5" points="1254.89,-633.5 1264.89,-630 1254.89,-626.5 1254.89,-633.5"/>
<text xml:space="preserve" text-anchor="middle" x="1234.4" y="-632.9" font-family="Helvetica Neue" font-size="8.00">gate 3</text>
</g>
<!-- TEST_GUARDIAN&#45;&gt;IMPLEMENTER -->
<g id="edge20" class="edge">
<title>TEST_GUARDIAN&#45;&gt;IMPLEMENTER</title>
<path fill="none" stroke="#ff5252" stroke-dasharray="5,2" d="M1267.4,-647.75C1249.2,-653.43 1228.45,-659.22 1209.15,-663 981.47,-707.59 917.59,-725 687.95,-692 658.26,-687.73 649.17,-688 623.2,-673 611.49,-666.24 613.03,-658.53 601.2,-652 579.16,-639.83 552.56,-632.06 529.11,-627.14"/>
<polygon fill="#ff5252" stroke="#ff5252" points="529.86,-623.72 519.37,-625.24 528.52,-630.59 529.86,-623.72"/>
<text xml:space="preserve" text-anchor="middle" x="935.55" y="-711.03" font-family="Helvetica Neue" font-size="8.00">FAIL</text>
</g>
<!-- PROGRESS_TRACKER -->
<g id="node28" class="node">
<title>PROGRESS_TRACKER</title>
<path fill="#f8bbd0" stroke="#c62828" d="M1552.85,-648C1552.85,-648 1445.75,-648 1445.75,-648 1439.75,-648 1433.75,-642 1433.75,-636 1433.75,-636 1433.75,-624 1433.75,-624 1433.75,-618 1439.75,-612 1445.75,-612 1445.75,-612 1552.85,-612 1552.85,-612 1558.85,-612 1564.85,-618 1564.85,-624 1564.85,-624 1564.85,-636 1564.85,-636 1564.85,-642 1558.85,-648 1552.85,-648"/>
<text xml:space="preserve" text-anchor="start" x="1444.55" y="-630.5" font-family="Helvetica Neue" font-weight="bold" font-size="10.00">PROGRESS TRACKER</text>
<text xml:space="preserve" text-anchor="start" x="1474.55" y="-622.4" font-family="Helvetica Neue" font-size="8.00">CPI / SPI drift</text>
</g>
<!-- TEST_GUARDIAN&#45;&gt;PROGRESS_TRACKER -->
<g id="edge17" class="edge">
<title>TEST_GUARDIAN&#45;&gt;PROGRESS_TRACKER</title>
<path fill="none" stroke="#c62828" d="M1372.07,-630C1387.78,-630 1405.41,-630 1422.4,-630"/>
<polygon fill="#c62828" stroke="#c62828" points="1421.93,-633.5 1431.93,-630 1421.93,-626.5 1421.93,-633.5"/>
<text xml:space="preserve" text-anchor="middle" x="1402.75" y="-632.9" font-family="Helvetica Neue" font-size="8.00">done</text>
</g>
<!-- DEBUGGER -->
<g id="node26" class="node">
<title>DEBUGGER</title>
<path fill="#f8bbd0" stroke="#c62828" d="M503.32,-702C503.32,-702 435.22,-702 435.22,-702 429.22,-702 423.22,-696 423.22,-690 423.22,-690 423.22,-678 423.22,-678 423.22,-672 429.22,-666 435.22,-666 435.22,-666 503.32,-666 503.32,-666 509.32,-666 515.32,-672 515.32,-678 515.32,-678 515.32,-690 515.32,-690 515.32,-696 509.32,-702 503.32,-702"/>
<text xml:space="preserve" text-anchor="start" x="440.4" y="-684.5" font-family="Helvetica Neue" font-weight="bold" font-size="10.00">DEBUGGER</text>
<text xml:space="preserve" text-anchor="start" x="434.02" y="-676.4" font-family="Helvetica Neue" font-size="8.00">Root cause analysis</text>
</g>
<!-- INTEGRATOR -->
<g id="node27" class="node">
<title>INTEGRATOR</title>
<path fill="#f8bbd0" stroke="#c62828" d="M501.07,-767C501.07,-767 437.47,-767 437.47,-767 431.47,-767 425.47,-761 425.47,-755 425.47,-755 425.47,-743 425.47,-743 425.47,-737 431.47,-731 437.47,-731 437.47,-731 501.07,-731 501.07,-731 507.07,-731 513.07,-737 513.07,-743 513.07,-743 513.07,-755 513.07,-755 513.07,-761 507.07,-767 501.07,-767"/>
<text xml:space="preserve" text-anchor="start" x="436.27" y="-749.5" font-family="Helvetica Neue" font-weight="bold" font-size="10.00">INTEGRATOR</text>
<text xml:space="preserve" text-anchor="start" x="436.27" y="-741.4" font-family="Helvetica Neue" font-size="8.00">System integration</text>
</g>
<!-- CHANGE_CONTROLLER -->
<g id="node29" class="node">
<title>CHANGE_CONTROLLER</title>
<path fill="#f8bbd0" stroke="#c62828" d="M526.2,-832C526.2,-832 412.35,-832 412.35,-832 406.35,-832 400.35,-826 400.35,-820 400.35,-820 400.35,-808 400.35,-808 400.35,-802 406.35,-796 412.35,-796 412.35,-796 526.2,-796 526.2,-796 532.2,-796 538.2,-802 538.2,-808 538.2,-808 538.2,-820 538.2,-820 538.2,-826 532.2,-832 526.2,-832"/>
<text xml:space="preserve" text-anchor="start" x="411.15" y="-814.5" font-family="Helvetica Neue" font-weight="bold" font-size="10.00">CHANGE CONTROLLER</text>
<text xml:space="preserve" text-anchor="start" x="436.65" y="-806.4" font-family="Helvetica Neue" font-size="8.00">Mid&#45;build changes</text>
</g>
<!-- ENG_MANAGER -->
<g id="node30" class="node">
<title>ENG_MANAGER</title>
<path fill="#f8bbd0" stroke="#c62828" stroke-dasharray="5,2" d="M506.32,-897C506.32,-897 432.22,-897 432.22,-897 426.22,-897 420.22,-891 420.22,-885 420.22,-885 420.22,-873 420.22,-873 420.22,-867 426.22,-861 432.22,-861 432.22,-861 506.32,-861 506.32,-861 512.32,-861 518.32,-867 518.32,-873 518.32,-873 518.32,-885 518.32,-885 518.32,-891 512.32,-897 506.32,-897"/>
<text xml:space="preserve" text-anchor="start" x="431.02" y="-879.5" font-family="Helvetica Neue" font-weight="bold" font-size="10.00">ENG MANAGER</text>
<text xml:space="preserve" text-anchor="start" x="437.77" y="-871.4" font-family="Helvetica Neue" font-size="8.00">Workflow sign&#45;off</text>
</g>
<!-- VERIFICATION_B -->
<g id="node31" class="node">
<title>VERIFICATION_B</title>
<path fill="#f8bbd0" stroke="#c62828" stroke-dasharray="5,2" d="M506.7,-962C506.7,-962 431.85,-962 431.85,-962 425.85,-962 419.85,-956 419.85,-950 419.85,-950 419.85,-938 419.85,-938 419.85,-932 425.85,-926 431.85,-926 431.85,-926 506.7,-926 506.7,-926 512.7,-926 518.7,-932 518.7,-938 518.7,-938 518.7,-950 518.7,-950 518.7,-956 512.7,-962 506.7,-962"/>
<text xml:space="preserve" text-anchor="start" x="434.02" y="-944.5" font-family="Helvetica Neue" font-weight="bold" font-size="10.00">VERIFICATION</text>
<text xml:space="preserve" text-anchor="start" x="430.65" y="-936.4" font-family="Helvetica Neue" font-size="8.00">Final backprop check</text>
</g>
<!-- VISUAL_VALIDATOR -->
<g id="node32" class="node">
<title>VISUAL_VALIDATOR</title>
<path fill="#f8bbd0" stroke="#c62828" stroke-dasharray="5,2" d="M516.07,-1027C516.07,-1027 422.47,-1027 422.47,-1027 416.47,-1027 410.47,-1021 410.47,-1015 410.47,-1015 410.47,-1003 410.47,-1003 410.47,-997 416.47,-991 422.47,-991 422.47,-991 516.07,-991 516.07,-991 522.07,-991 528.07,-997 528.07,-1003 528.07,-1003 528.07,-1015 528.07,-1015 528.07,-1021 522.07,-1027 516.07,-1027"/>
<text xml:space="preserve" text-anchor="start" x="421.27" y="-1009.5" font-family="Helvetica Neue" font-weight="bold" font-size="10.00">VISUAL VALIDATOR</text>
<text xml:space="preserve" text-anchor="start" x="442.65" y="-1001.4" font-family="Helvetica Neue" font-size="8.00">Screenshot diff</text>
</g>
<!-- VETERAN -->
<g id="node37" class="node">
<title>VETERAN</title>
<path fill="#cfd8dc" stroke="#37474f" d="M495.07,-484C495.07,-484 443.47,-484 443.47,-484 437.47,-484 431.47,-478 431.47,-472 431.47,-472 431.47,-460 431.47,-460 431.47,-454 437.47,-448 443.47,-448 443.47,-448 495.07,-448 495.07,-448 501.07,-448 507.07,-454 507.07,-460 507.07,-460 507.07,-472 507.07,-472 507.07,-478 501.07,-484 495.07,-484"/>
<text xml:space="preserve" text-anchor="start" x="445.65" y="-466.5" font-family="Helvetica Neue" font-weight="bold" font-size="10.00">VETERAN</text>
<text xml:space="preserve" text-anchor="start" x="442.27" y="-458.4" font-family="Helvetica Neue" font-size="8.00">Global memory</text>
</g>
<!-- MONITOR -->
<g id="node38" class="node">
<title>MONITOR</title>
<path fill="#cfd8dc" stroke="#37474f" d="M493.2,-549C493.2,-549 445.35,-549 445.35,-549 439.35,-549 433.35,-543 433.35,-537 433.35,-537 433.35,-525 433.35,-525 433.35,-519 439.35,-513 445.35,-513 445.35,-513 493.2,-513 493.2,-513 499.2,-513 505.2,-519 505.2,-525 505.2,-525 505.2,-537 505.2,-537 505.2,-543 499.2,-549 493.2,-549"/>
<text xml:space="preserve" text-anchor="start" x="445.27" y="-531.5" font-family="Helvetica Neue" font-weight="bold" font-size="10.00">MONITOR</text>
<text xml:space="preserve" text-anchor="start" x="444.15" y="-523.4" font-family="Helvetica Neue" font-size="8.00">Metacognition</text>
</g>
<!-- TEMPORAL_STORE -->
<g id="node41" class="node">
<title>TEMPORAL_STORE</title>
<path fill="#ffcdd2" stroke="#b71c1c" d="M853.17,-129.6C853.17,-131.64 827.16,-133.29 795.12,-133.29 763.09,-133.29 737.07,-131.64 737.07,-129.6 737.07,-129.6 737.07,-96.4 737.07,-96.4 737.07,-94.36 763.09,-92.7 795.12,-92.7 827.16,-92.7 853.17,-94.36 853.17,-96.4 853.17,-96.4 853.17,-129.6 853.17,-129.6"/>
<path fill="none" stroke="#b71c1c" d="M853.17,-129.6C853.17,-127.57 827.16,-125.91 795.12,-125.91 763.09,-125.91 737.07,-127.57 737.07,-129.6"/>
<text xml:space="preserve" text-anchor="start" x="747.87" y="-113.5" font-family="Helvetica Neue" font-weight="bold" font-size="10.00">temporal&#45;store.json</text>
<text xml:space="preserve" text-anchor="start" x="758.37" y="-105.4" font-family="Helvetica Neue" font-size="8.00">Append&#45;only fact log</text>
</g>
<!-- PRE_GATE&#45;&gt;TEMPORAL_STORE -->
<g id="edge2" class="edge">
<title>PRE_GATE&#45;&gt;TEMPORAL_STORE</title>
<path fill="none" stroke="#b71c1c" stroke-dasharray="5,2" d="M579.46,-113C627.74,-113 683.03,-113 725.41,-113"/>
<polygon fill="#b71c1c" stroke="#b71c1c" points="725.21,-116.5 735.21,-113 725.21,-109.5 725.21,-116.5"/>
<text xml:space="preserve" text-anchor="middle" x="644.57" y="-115.9" font-family="Helvetica Neue" font-size="8.00">check/write</text>
</g>
<!-- POST_AUDIT -->
<g id="node40" class="node">
<title>POST_AUDIT</title>
<path fill="#ffcdd2" stroke="#b71c1c" d="M573.06,-35.88C573.06,-35.88 573.06,-42.12 573.06,-42.12 573.06,-45.24 570.01,-49.02 566.96,-49.69 566.96,-49.69 518.36,-60.27 518.36,-60.27 515.31,-60.93 509.14,-61.59 506.02,-61.59 506.02,-61.59 432.53,-61.59 432.53,-61.59 429.41,-61.59 423.24,-60.93 420.19,-60.27 420.19,-60.27 371.59,-49.69 371.59,-49.69 368.54,-49.02 365.49,-45.24 365.49,-42.12 365.49,-42.12 365.49,-35.88 365.49,-35.88 365.49,-32.76 368.54,-28.98 371.59,-28.31 371.59,-28.31 420.19,-17.73 420.19,-17.73 423.24,-17.07 429.41,-16.41 432.53,-16.41 432.53,-16.41 506.02,-16.41 506.02,-16.41 509.14,-16.41 515.31,-17.07 518.36,-17.73 518.36,-17.73 566.96,-28.31 566.96,-28.31 570.01,-28.98 573.06,-32.76 573.06,-35.88"/>
<text xml:space="preserve" text-anchor="start" x="412.27" y="-39.5" font-family="Helvetica Neue" font-weight="bold" font-size="10.00">post&#45;execution&#45;audit.sh</text>
<text xml:space="preserve" text-anchor="start" x="424.27" y="-31.4" font-family="Helvetica Neue" font-size="8.00">Output constraint checks</text>
</g>
<!-- POST_AUDIT&#45;&gt;COMMANDER -->
<g id="edge21" class="edge">
<title>POST_AUDIT&#45;&gt;COMMANDER</title>
<path fill="none" stroke="#b71c1c" stroke-dasharray="5,2" d="M381.65,-52.37C329.55,-65.55 267.87,-91.52 238.85,-142.5 132.54,-329.24 119.01,-1956.88 117.58,-2198.95"/>
<polygon fill="#b71c1c" stroke="#b71c1c" points="114.08,-2198.77 117.52,-2208.79 121.08,-2198.81 114.08,-2198.77"/>
<text xml:space="preserve" text-anchor="middle" x="277.1" y="-145.4" font-family="Helvetica Neue" font-size="8.00">PASS/FAIL</text>
</g>
<!-- leg1 -->
<g id="node42" class="node">
<title>leg1</title>
<path fill="#ffffff" stroke="none" d="M204.85,-2465C204.85,-2465 28,-2465 28,-2465 22,-2465 16,-2459 16,-2453 16,-2453 16,-2441 16,-2441 16,-2435 22,-2429 28,-2429 28,-2429 204.85,-2429 204.85,-2429 210.85,-2429 216.85,-2435 216.85,-2441 216.85,-2441 216.85,-2453 216.85,-2453 216.85,-2459 210.85,-2465 204.85,-2465"/>
<text xml:space="preserve" text-anchor="middle" x="116.42" y="-2443.5" font-family="Helvetica Neue" font-size="10.00">Solid border = registered in agents.yaml</text>
</g>
<!-- leg2 -->
<g id="node43" class="node">
<title>leg2</title>
<path fill="#ffffff" stroke="none" d="M589.2,-2465C589.2,-2465 349.35,-2465 349.35,-2465 343.35,-2465 337.35,-2459 337.35,-2453 337.35,-2453 337.35,-2441 337.35,-2441 337.35,-2435 343.35,-2429 349.35,-2429 349.35,-2429 589.2,-2429 589.2,-2429 595.2,-2429 601.2,-2435 601.2,-2441 601.2,-2441 601.2,-2453 601.2,-2453 601.2,-2459 595.2,-2465 589.2,-2465"/>
<text xml:space="preserve" text-anchor="middle" x="469.27" y="-2443.5" font-family="Helvetica Neue" font-size="10.00">Dashed border = unregistered (dispatched by file path)</text>
</g>
<!-- leg1&#45;&gt;leg2 -->
<!-- leg3 -->
<g id="node44" class="node">
<title>leg3</title>
<path fill="#ffffff" stroke="none" d="M890.3,-2465C890.3,-2465 699.95,-2465 699.95,-2465 693.95,-2465 687.95,-2459 687.95,-2453 687.95,-2453 687.95,-2441 687.95,-2441 687.95,-2435 693.95,-2429 699.95,-2429 699.95,-2429 890.3,-2429 890.3,-2429 896.3,-2429 902.3,-2435 902.3,-2441 902.3,-2441 902.3,-2453 902.3,-2453 902.3,-2459 896.3,-2465 890.3,-2465"/>
<text xml:space="preserve" text-anchor="middle" x="795.12" y="-2443.5" font-family="Helvetica Neue" font-size="10.00">Octagon = enforcement script (NEW v0.3.0)</text>
</g>
<!-- leg2&#45;&gt;leg3 -->
<!-- leg4 -->
<g id="node45" class="node">
<title>leg4</title>
<path fill="#ffffff" stroke="none" d="M1189.15,-2465C1189.15,-2465 980.8,-2465 980.8,-2465 974.8,-2465 968.8,-2459 968.8,-2453 968.8,-2453 968.8,-2441 968.8,-2441 968.8,-2435 974.8,-2429 980.8,-2429 980.8,-2429 1189.15,-2429 1189.15,-2429 1195.15,-2429 1201.15,-2435 1201.15,-2441 1201.15,-2441 1201.15,-2453 1201.15,-2453 1201.15,-2459 1195.15,-2465 1189.15,-2465"/>
<text xml:space="preserve" text-anchor="middle" x="1084.97" y="-2443.5" font-family="Helvetica Neue" font-size="10.00">Bold border = blocking agent (can halt pipeline)</text>
</g>
<!-- leg3&#45;&gt;leg4 -->
</g>
</svg>
